<?xml version="1.0" encoding="UTF-8"?>
<svg width="185px" height="162px" viewBox="0 0 185 162" version="1.1" xmlns="http://www.w3.org/2000/svg" xmlns:xlink="http://www.w3.org/1999/xlink">
    <!-- Generator: sketchtool 57.1 (101010) - https://sketch.com -->
    <title>EDEB478A-B145-4042-9E8E-0172454F7E26</title>
    <desc>Created with sketchtool.</desc>
    <defs>
        <polygon id="path-1" points="0 162 185 162 185 0 0 0"></polygon>
    </defs>
    <g id="Page-1" stroke="none" stroke-width="1" fill="none" fill-rule="evenodd">
        <g id="Internal" transform="translate(-774.000000, -1332.000000)">
            <g id="icon-emergency" transform="translate(774.000000, 1332.000000)">
                <path d="M182,121.66795 L110.328553,0 C72.2986715,22.2176447 40.7675528,54.1346524 19,92.3415368 L142.106405,162 C151.856753,144.834015 165.768512,131.147771 182,121.66795" id="Fill-1" fill="#F7F3F2"></path>
                <path d="M43.5496655,26.398449 C43.5103456,27.3181204 42.6823154,28.0355945 41.7039445,27.9986337 C40.7232607,27.9616729 39.9599926,27.1854964 40.0016254,26.265825 L40.4526474,15.6037251 C40.4919673,14.6818796 41.3153717,13.9644055 42.2960555,14.0013663 C43.2767393,14.0383271 44.0400074,14.8145036 43.9983746,15.7363491 L43.5496655,26.398449 Z" id="Fill-3" fill="#EDCED5"></path>
                <path d="M36.6015544,22.5477434 C35.6797092,22.5084429 34.9644094,21.6831328 35.0013702,20.7052443 C35.0361568,19.725044 35.8145073,18.9621523 36.7363525,19.0014528 L47.3984495,19.4522524 C48.3181206,19.4938647 49.0355945,20.316863 48.9986337,21.2970633 C48.9616729,22.2772636 48.1854966,23.0378436 47.2636514,22.9985431 L36.6015544,22.5477434 Z" id="Fill-5" fill="#EDCED5"></path>
                <path d="M19.3933845,54.0014099 C19.0086049,54.8379507 17.9671652,55.2250389 17.070882,54.8659071 C16.1745988,54.5067752 15.7575621,53.536904 16.1446459,52.6982128 L20.6053254,42.9995015 C20.9901051,42.1629607 22.0315447,41.773722 22.9278279,42.1350044 C23.8264152,42.4941363 24.2411478,43.4661579 23.8563681,44.3026986 L19.3933845,54.0014099 Z" id="Fill-7" fill="#EDCED5"></path>
                <path d="M172.998807,52.3941273 C172.160194,52.0094096 171.775292,50.9681379 172.13439,50.0719992 C172.493489,49.1735568 173.46542,48.7588911 174.301884,49.1436087 L183.999696,53.6058727 C184.836159,53.9905904 185.225362,55.0318621 184.866263,55.9280008 C184.505014,56.8264432 183.533083,57.2411089 182.696619,56.8563913 L172.998807,52.3941273 Z" id="Fill-9" fill="#EDCED5"></path>
                <path d="M57.5545469,112 C57.0881797,112 56.615213,111.907185 56.1378466,111.701665 C53.2340511,110.448661 53.4694345,106.473077 53.6938187,102.625667 C53.8654067,99.6865197 54.0611929,96.3518029 52.5762974,95.7131461 C51.0848025,95.0744893 48.8233617,97.5119927 46.8237026,99.662211 C44.2058869,102.475395 41.4956778,105.381394 38.596282,104.132809 C35.6946863,102.882014 35.9300697,98.9064302 36.1566538,95.06123 C36.3348412,92.1198728 36.5306274,88.7895758 35.0501317,88.150919 C33.5630364,87.5100523 31.297196,89.9497655 29.2975368,92.1021937 C26.6797211,94.9153776 23.9783114,97.8213766 21.072316,96.5750013 C18.1729202,95.3242063 18.4061038,91.346413 18.6348877,87.5012127 C18.8108753,84.5620654 19.0088613,81.2295586 17.5261658,80.5909017 C16.0368706,79.9522449 13.7754299,82.3919582 11.771371,84.5421765 C9.15575523,87.3531504 6.44994578,90.2613593 3.54615027,89.0127742 C0.646754454,87.7619792 0.879938033,83.7863957 1.10872192,79.9411955 C1.28470953,77.0020482 1.48269558,73.6695413 0,73.0308845 L0.866738962,71 C3.76833462,72.250795 3.5329512,76.2285884 3.30636716,80.0715787 C3.13037955,83.0129359 2.93239349,86.3432329 4.41508908,86.9818897 C5.89558482,87.6183367 8.1636251,85.1808333 10.167684,83.0328249 C12.7832998,80.219641 15.4847095,77.3114321 18.3929047,78.5600172 C21.2945004,79.8108123 21.059117,83.7863957 20.8325329,87.6338059 C20.6565453,90.5729532 20.4585593,93.90546 21.9412548,94.5441169 C23.4217506,95.1739341 25.6897909,92.7430604 27.6916499,90.5928421 C30.3094655,87.7796583 33.0108753,84.8714494 35.9168706,86.1200345 C38.8162665,87.3708295 38.5830829,91.346413 38.354299,95.1916132 C38.1783114,98.1329704 37.9825252,101.463267 39.4630209,102.101924 C40.9501162,102.747211 43.2159566,100.303078 45.2178156,98.1528594 C47.8356313,95.3374656 50.5414407,92.4314666 53.4452363,93.6822616 C56.3490318,94.9352665 56.1158482,98.91085 55.8892641,102.75605 C55.7176762,105.697407 55.52189,109.029914 57.0067854,109.670781 C58.4938807,110.305018 60.761921,107.871934 62.7659799,105.723926 C65.3859954,102.912952 68.0918048,100.002533 71,101.255538 L70.133261,103.286423 C68.6373664,102.643346 66.3759256,105.083059 64.3740666,107.233278 C62.1830209,109.584595 59.9303796,112 57.5545469,112" id="Fill-11" fill="#F1C54C"></path>
                <path d="M157.509866,45.6448798 C156.600889,47.0284979 154.742437,47.4177109 153.354222,46.5087975 C151.970507,45.5998841 151.583517,43.7415611 152.490244,42.3556932 C153.401471,40.9698252 155.259923,40.5828621 156.643638,41.4917755 C158.029603,42.4006889 158.416593,44.256762 157.509866,45.6448798" id="Fill-13" fill="#EDCED5"></path>
                <mask id="mask-2" fill="white">
                    <use xlink:href="#path-1"></use>
                </mask>
                <g id="Clip-16"></g>
                <polygon id="Fill-15" fill="#FFFFFE" mask="url(#mask-2)" points="80 137 148 137 148 119 80 119"></polygon>
                <path d="M82.4242424,134.641838 L146.575758,134.641838 L146.575758,121.358162 L82.4242424,121.358162 L82.4242424,134.641838 Z M148.787879,139 L80.2121212,139 C78.9888182,139 78,138.023772 78,136.820919 L78,119.179081 C78,117.976228 78.9888182,117 80.2121212,117 L148.787879,117 C150.011182,117 151,117.976228 151,119.179081 L151,136.820919 C151,138.023772 150.011182,139 148.787879,139 L148.787879,139 Z" id="Fill-17" fill="#57337E" mask="url(#mask-2)"></path>
                <path d="M91,119 L91,101.982567 C91,88.1822504 101.739726,77 114.998893,77 C121.640653,77 127.618237,79.7733756 131.97966,84.2995246 C136.321157,88.8256735 139,95.0602219 139,101.982567 L139,119" id="Fill-18" fill="#FFFFFE" mask="url(#mask-2)"></path>
                <path d="M138.804147,121 C137.58984,121 136.608294,120.015385 136.608294,118.802198 L136.608294,101.945055 C136.608294,95.8945055 134.353152,90.2153846 130.257886,85.9516484 C126.180187,81.7252747 120.760821,79.3956044 114.998902,79.3956044 C103.084203,79.3956044 93.3917064,89.5098901 93.3917064,101.945055 L93.3917064,118.802198 C93.3917064,120.015385 92.41016,121 91.1958532,121 C89.9837422,121 89,120.015385 89,118.802198 L89,101.945055 C89,87.0857143 100.664372,75 114.998902,75 C121.961953,75 128.505595,77.8065934 133.422111,82.9010989 C138.307884,87.9912088 141,94.7538462 141,101.945055 L141,118.802198 C141,120.015385 140.018454,121 138.804147,121" id="Fill-19" fill="#57337E" mask="url(#mask-2)"></path>
                <path d="M114,67 C112.894,67 112,66.0212404 112,64.8152688 L112,33.1847312 C112,31.9787596 112.894,31 114,31 C115.106,31 116,31.9787596 116,33.1847312 L116,64.8152688 C116,66.0212404 115.106,67 114,67" id="Fill-20" fill="#57337E" mask="url(#mask-2)"></path>
                <path d="M134.171554,69 C133.624497,69 133.075269,68.7859871 132.654122,68.3579612 C131.796632,67.4883928 131.779265,66.0623907 132.619388,65.1725474 L146.276279,50.6759863 C147.114232,49.7906485 148.492729,49.7703736 149.345878,50.6421948 C150.203368,51.5095104 150.220735,52.9377652 149.380612,53.8276085 L135.723721,68.3219169 C135.300402,68.7724704 134.735978,69 134.171554,69" id="Fill-21" fill="#57337E" mask="url(#mask-2)"></path>
                <path d="M95.7466973,69 C95.1790461,69 94.6091424,68.7937383 94.1721411,68.3812149 L79.676763,54.7223475 C78.7892449,53.8864448 78.7712242,52.5099193 79.6429742,51.6523048 C80.5079665,50.7968615 81.9383573,50.7794921 82.828128,51.6197372 L97.3212535,65.2764334 C98.2110242,66.1145073 98.2290449,67.4888616 97.3572949,68.3464761 C96.918041,68.7807112 96.3323691,69 95.7466973,69" id="Fill-22" fill="#57337E" mask="url(#mask-2)"></path>
                <path d="M101.210294,102 C99.9880013,102 99,101.016783 99,99.8053189 C99,93.4780532 104.828544,85 110.789706,85 C112.011999,85 113,85.9832171 113,87.1946811 C113,88.4061451 112.011999,89.3893623 110.789706,89.3893623 C107.989264,89.3893623 103.420587,95.2074619 103.420587,99.8053189 C103.420587,101.016783 102.432586,102 101.210294,102" id="Fill-23" fill="#57337E" mask="url(#mask-2)"></path>
                <path d="M79.8438174,89 L61.1561826,89 C59.9638136,89 59,88.104 59,87 C59,85.896 59.9638136,85 61.1561826,85 L79.8438174,85 C81.0361864,85 82,85.896 82,87 C82,88.104 81.0361864,89 79.8438174,89" id="Fill-24" fill="#57337E" mask="url(#mask-2)"></path>
                <path d="M167.843817,89 L149.156183,89 C147.963814,89 147,88.104 147,87 C147,85.896 147.963814,85 149.156183,85 L167.843817,85 C169.036186,85 170,85.896 170,87 C170,88.104 169.036186,89 167.843817,89" id="Fill-25" fill="#57337E" mask="url(#mask-2)"></path>
                <path d="M32.5,41.3529412 C24.6995294,41.3529412 18.3529412,47.6995294 18.3529412,55.5 C18.3529412,63.3004706 24.6995294,69.6470588 32.5,69.6470588 C40.3004706,69.6470588 46.6470588,63.3004706 46.6470588,55.5 C46.6470588,47.6995294 40.3004706,41.3529412 32.5,41.3529412 M32.5,74 C22.2988824,74 14,65.7011176 14,55.5 C14,45.2988824 22.2988824,37 32.5,37 C42.7011176,37 51,45.2988824 51,55.5 C51,65.7011176 42.7011176,74 32.5,74" id="Fill-26" fill="#57337E" mask="url(#mask-2)"></path>
                <path d="M28.0366751,65.7586667 C28.1884473,65.7586667 28.3423877,65.7911667 28.4876554,65.8561667 C29.0817352,66.1291667 29.7083376,66.348 30.3436127,66.5083333 C30.8704791,66.6383333 31.2087143,67.1345 31.1588463,67.6566667 C31.2715913,67.141 31.7485897,66.7813333 32.2906333,66.8095 C32.9389174,66.8528333 33.6110515,66.8333333 34.2571675,66.7596667 C34.7927065,66.7055 35.2848821,67.037 35.4258135,67.5396667 C35.3542637,67.0218333 35.6664808,66.5148333 36.1825063,66.3566667 C36.8069406,66.1638333 37.4183657,65.9146667 38.0016047,65.6113333 C38.478603,65.3578333 39.0618419,65.503 39.374059,65.9233333 C39.1182145,65.4661667 39.2287914,64.8768333 39.6537535,64.5453333 C40.1741154,64.1401667 40.6554501,63.6873333 41.0912532,63.1998333 C41.4511701,62.7946667 42.0517544,62.721 42.494062,63.0135 C42.0864452,62.6755 41.9802047,62.0818333 42.2642355,61.616 C42.6068071,61.0548333 42.8973424,60.4611667 43.1271689,59.8523333 C43.3201364,59.3475 43.8513392,59.0701667 44.358692,59.1741667 C43.8686846,59.0008333 43.5608038,58.4916667 43.6562035,57.9608333 C43.7732849,57.3195 43.8318256,56.6608333 43.8318256,56 C43.8296574,55.623 43.8101439,55.246 43.7732849,54.8755 C43.7147442,54.3403333 44.0616521,53.855 44.5646686,53.7185 C44.0594839,53.7921667 43.5477948,53.4628333 43.3981907,52.9471667 C43.2117277,52.3166667 42.9688922,51.7013333 42.6740205,51.1185 C42.4290168,50.6331667 42.5829572,50.0503333 43.016592,49.7448333 C42.5482664,50.0005 41.9585229,49.8878333 41.6289604,49.4523333 C41.2321845,48.9301667 40.7855406,48.4426667 40.2998695,47.9985 C39.9009254,47.6345 39.8358802,47.0386667 40.1264156,46.6031667 C39.7816758,46.9975 39.187596,47.0906667 38.7366158,46.809 C38.1750586,46.458 37.583147,46.1611667 36.9782263,45.9206667 C36.4665372,45.7191667 36.1955154,45.1731667 36.3234377,44.6531667 C36.1543201,45.1623333 35.6252855,45.4786667 35.0897464,45.3681667 C34.4479668,45.2425 33.7888418,45.1753333 33.131885,45.1666667 C32.5833368,45.1601667 32.1366929,44.7463333 32.0694795,44.2176667 C32.0868249,44.7485 31.7073944,45.2251667 31.167519,45.3183333 C30.5192348,45.4288333 29.8796234,45.5978333 29.26603,45.821 C28.7608454,46.0051667 28.2057927,45.7906667 27.9499482,45.3378333 C28.1407475,45.8231667 27.9542845,46.3886667 27.4902952,46.6638333 C26.9244017,46.9975 26.3866944,47.3831667 25.8945188,47.81 C25.4825657,48.1675 24.877645,48.1588333 24.4787009,47.8165 C24.8364497,48.2043333 24.8668042,48.8045 24.528569,49.2291667 C24.1166158,49.7383333 23.7501944,50.293 23.4379772,50.8693333 C23.1821327,51.3481667 22.6097346,51.554 22.1197272,51.3741667 C22.5923892,51.6081667 22.8373929,52.1628333 22.6682753,52.6806667 C22.4688033,53.2981667 22.3235356,53.9416667 22.241145,54.5938333 C22.1717634,55.1376667 21.7121104,55.5341667 21.1809077,55.5406667 C21.7121104,55.5883333 22.1392408,56.0195 22.1652589,56.5655 C22.1999497,57.2198333 22.2931812,57.8741667 22.4427852,58.5068333 C22.5685393,59.0355 22.2866766,59.5641667 21.7988374,59.7613333 C22.2996857,59.627 22.8460656,59.8761667 23.0672194,60.368 C23.336073,60.9746667 23.659131,61.5553333 24.0233843,62.0905 C24.3312651,62.539 24.2532108,63.1348333 23.8672758,63.4945 C24.2879016,63.1803333 24.8928223,63.2215 25.2765891,63.6071667 C25.7384103,64.0773333 26.2457631,64.5041667 26.7813022,64.879 C27.2257779,65.191 27.3645411,65.7781667 27.1282101,66.2505 C27.3320185,65.9385 27.6767582,65.7586667 28.0366751,65.7586667 M32.9909536,69 C32.7069228,69 32.4228919,68.9891667 32.1475338,68.9718333 C31.5491177,68.9306667 31.0959692,68.415 31.1371645,67.8191667 C31.1371645,67.8083333 31.1393327,67.7975 31.1393327,67.7888333 C31.1371645,67.7996667 31.1349963,67.8105 31.1328282,67.8213333 C30.9832241,68.402 30.4043216,68.7551667 29.8145781,68.6078333 C29.0513807,68.4171667 28.3011924,68.1528333 27.5856949,67.8278333 C27.0414831,67.5786667 26.8029839,66.9351667 27.0501558,66.3913333 C27.0566603,66.3805 27.0631648,66.3675 27.0675012,66.3566667 C27.0609967,66.3675 27.0544921,66.3783333 27.0458194,66.387 C26.7054161,66.881 26.0267775,66.9936667 25.5367701,66.6535 C24.8949904,66.205 24.2879016,65.6936667 23.7350171,65.1303333 C23.3122231,64.7056667 23.3165595,64.0188333 23.7436898,63.5985 C23.7501944,63.592 23.758867,63.5833333 23.7675397,63.5746667 C23.7566989,63.5833333 23.7480262,63.5898333 23.7393535,63.5941667 C23.2493461,63.9321667 22.5707075,63.8065 22.2324723,63.3103333 C21.794501,62.6668333 21.408566,61.9735 21.085508,61.2498333 C20.8426725,60.7038333 21.0876762,60.0646667 21.6362243,59.8198333 C21.6470652,59.8155 21.6579061,59.809 21.6687469,59.8046667 C21.6600742,59.809 21.6492334,59.8111667 21.6405607,59.8133333 C21.0486491,59.9476667 20.4719147,59.5923333 20.3331515,59.0116667 C20.1510249,58.2468333 20.040448,57.4603333 20.0014208,56.6716667 C19.9710664,56.0736667 20.4307194,55.5666667 21.0313037,55.5363333 C21.0421445,55.5363333 21.0573218,55.5363333 21.0703308,55.5363333 C21.0551536,55.5341667 21.0421445,55.532 21.0291355,55.532 C20.4328875,55.4561667 20.0144299,54.9123333 20.090316,54.3186667 C20.1922202,53.5343333 20.3656741,52.7586667 20.6063415,52.0111667 C20.7906363,51.4435 21.395557,51.1336667 21.9722913,51.3156667 C21.9831322,51.3178333 21.9961413,51.3221667 22.0069821,51.3265 C21.9939731,51.32 21.980964,51.3135 21.9701232,51.3091667 C21.4432568,51.0231667 21.2459529,50.3666667 21.5321519,49.8401667 C21.9050779,49.1468333 22.3452173,48.486 22.8352248,47.875 C23.2103189,47.407 23.8976302,47.3311667 24.3594514,47.706 C24.3702922,47.7125 24.3789649,47.7211667 24.3854694,47.7298333 C24.3789649,47.7211667 24.3724604,47.7103333 24.3637877,47.7038333 C23.9713481,47.251 24.019048,46.5663333 24.4700283,46.1741667 C25.064108,45.6606667 25.710224,45.197 26.3888626,44.7961667 C26.9048881,44.4928333 27.5683495,44.6618333 27.8740621,45.1796667 C27.8783984,45.1861667 27.8805666,45.1905 27.8849029,45.197 C27.8827347,45.1905 27.8783984,45.184 27.8762302,45.1753333 C27.6702537,44.6141667 27.960789,43.9923333 28.5223462,43.7865 C29.2573573,43.5178333 30.0248911,43.3141667 30.8032657,43.182 C31.3865046,43.0845 31.9545663,43.4788333 32.0564705,44.0681667 L32.0608068,44.118 L32.0608068,44.0703333 C32.0694795,43.4766667 32.5529824,43 33.144894,43 L33.1600712,43 C33.9492867,43.0108333 34.7385022,43.0931667 35.5038678,43.2426667 C36.0936112,43.3575 36.4773781,43.9273333 36.3602966,44.5145 C36.3581285,44.5318333 36.3537921,44.5513333 36.3494558,44.5686667 C36.3559603,44.5513333 36.3624648,44.534 36.3689693,44.5166667 C36.5879549,43.9576667 37.2188937,43.6868333 37.7739463,43.9078333 C38.5002848,44.1938333 39.2092778,44.5513333 39.88358,44.9695 C40.3909328,45.2858333 40.5470414,45.9553333 40.2304879,46.4623333 C40.2239834,46.471 40.2174789,46.4796667 40.2131425,46.4883333 C40.2174789,46.4818333 40.2239834,46.4753333 40.2304879,46.4688333 C40.6337684,46.0268333 41.3210797,45.9943333 41.7612191,46.3995 C42.344458,46.9303333 42.879997,47.5153333 43.3548272,48.1415 C43.7169124,48.6181667 43.6236809,49.2963333 43.1488507,49.6581667 C43.1380098,49.6668333 43.1271689,49.6755 43.1141599,49.6841667 C43.1271689,49.6755 43.140178,49.669 43.153187,49.6625 C43.6843897,49.3916667 44.3391784,49.604 44.6102002,50.1413333 C44.9636126,50.8411667 45.254148,51.58 45.47747,52.3383333 C45.6465876,52.9103333 45.3191932,53.5126667 44.7424589,53.6816667 C44.7359543,53.6838333 44.7272816,53.686 44.7207771,53.6881667 C44.7272816,53.6881667 44.731618,53.686 44.7381225,53.686 C45.3191932,53.6123333 45.8677414,54.0543333 45.9284502,54.6523333 C45.9739819,55.0921667 45.9978318,55.5406667 46,55.9935 C46,56.7908333 45.9306184,57.5795 45.7896871,58.3486667 C45.6834465,58.938 45.0871986,59.315 44.5299778,59.2196667 C44.5213051,59.2175 44.5126324,59.2153333 44.5039597,59.2131667 C44.5104642,59.2175 44.5191369,59.2196667 44.5256414,59.224 C45.0850304,59.4363333 45.3668931,60.0625 45.1565802,60.6193333 C44.8768857,61.3538333 44.5256414,62.0688333 44.1136883,62.7448333 C43.8036393,63.254 43.1336734,63.4165 42.6263206,63.1045 L42.593798,63.0871667 C42.6024707,63.0936667 42.6133116,63.1023333 42.6219843,63.111 C43.0707964,63.5075 43.1076554,64.1921667 42.7108794,64.6406667 C42.1883494,65.2256667 41.6094468,65.7673333 40.989349,66.2526667 C40.5231915,66.6188333 39.833712,66.5386667 39.4651224,66.0663333 C39.4629542,66.0576667 39.4564497,66.0511667 39.4499452,66.0425 C39.4542815,66.0511667 39.460786,66.0598333 39.4651224,66.0685 C39.7404805,66.5971667 39.5366721,67.2515 39.0054694,67.5288333 C38.3051491,67.895 37.5679698,68.1961667 36.8177814,68.428 C36.2388789,68.61 35.6382946,68.2806667 35.4626724,67.7086667 C35.4605043,67.7 35.4583361,67.6935 35.4561679,67.6848333 C35.4583361,67.6935 35.4583361,67.7021667 35.4605043,67.7108333 C35.5277177,68.3045 35.1027555,68.8418333 34.5065075,68.9111667 C34.0121638,68.9696667 33.504811,69 32.9909536,69" id="Fill-27" fill="#57337E" mask="url(#mask-2)"></path>
                <path d="M28,62 L28,60.4074945 C29.0479903,59.9749622 30.2121803,58.8543102 30.2121803,57.5152075 C30.2121803,57.2399597 30.1902558,57.0040329 30.1507917,56.7287851 L28.2192448,56.7287851 L28.2192448,54.7037473 L29.7956151,54.7037473 C29.6969549,54.2122332 29.6377588,53.642077 29.6377588,53.1112418 C29.6377588,50.6318266 31.453106,49 34.099391,49 C35.1846529,49 35.9936663,49.2359267 36.4299635,49.4718535 L35.9344702,51.7350025 C35.5595615,51.5187363 35.0070646,51.3811124 34.2769793,51.3811124 C32.8760049,51.3811124 32.4397077,52.2854982 32.4397077,53.2292052 C32.4397077,53.7403798 32.5010962,54.2122332 32.617296,54.7037473 L35.3227771,54.7037473 L35.3227771,56.7287851 L32.8760049,56.7287851 C32.8935445,57.2202991 32.8562728,57.6746765 32.6984166,58.1268694 C32.5208283,58.6183835 32.2051157,59.1098975 31.7293544,59.5227693 L31.7293544,59.5620904 L37,59.5620904 L37,62 L28,62 Z" id="Fill-28" fill="#DB306B" mask="url(#mask-2)"></path>
                <path d="M80.5,8.3519172 C78.91339,8.3519172 77.3398385,8.62173606 75.8250504,9.150494 C68.4643988,11.726829 64.5707839,19.8126911 67.1476649,27.1717831 C69.1303833,32.8401553 74.4974344,36.6480828 80.5,36.6480828 C82.08661,36.6480828 83.6601615,36.3782639 85.1749496,35.849506 C92.5356012,33.273171 96.4292161,25.1873089 93.8523351,17.8260409 C91.8696167,12.1598447 86.5025656,8.3519172 80.5,8.3519172 M80.5,41 C72.6518304,41 65.6350532,36.0214067 63.0407608,28.6122677 C59.6694867,18.9858269 64.7601324,8.41284404 74.386437,5.04228417 C76.3648025,4.35032933 78.4215191,4 80.5,4 C88.3481696,4 95.3649468,8.97859327 97.9592392,16.3877323 C101.330513,26.0141731 96.2398676,36.587156 86.613563,39.9555399 C84.6351975,40.6496707 82.5784809,41 80.5,41" id="Fill-29" fill="#57337E" mask="url(#mask-2)"></path>
                <path d="M82.0704818,32.7858357 C82.5710516,32.7858357 83.0109462,33.1346424 83.1214616,33.6199387 C83.0521186,33.0956454 83.3771639,32.5843511 83.9015704,32.4348626 C84.1247681,32.372034 84.3544668,32.3005395 84.5776646,32.2225454 C84.9850547,32.0817229 85.3707752,31.9192353 85.7478277,31.7372492 C86.2353957,31.5011005 86.8161433,31.6635881 87.113018,32.0990549 C86.8659836,31.6332571 86.9916678,31.0418023 87.4293955,30.7189936 C87.9538019,30.3355229 88.4478708,29.8957231 88.8986003,29.4147598 C89.2713189,29.0182901 89.8672353,28.9684606 90.2984621,29.2631048 C89.9062407,28.9121316 89.8152281,28.3206767 90.1077688,27.8657115 C90.4609847,27.3175867 90.7686943,26.7304648 91.0200627,26.121678 C91.2259247,25.6190497 91.7698339,25.3504035 92.2834054,25.4847266 C91.7850026,25.300574 91.4859609,24.7741142 91.5986433,24.2411549 C91.7373293,23.5998706 91.8153402,22.9434207 91.8326759,22.2913038 C91.8478447,21.7410125 92.2682367,21.2990463 92.799144,21.2427172 L92.7709734,21.2427172 C92.246567,21.2427172 91.7850026,20.8592465 91.7026578,20.3241207 C91.6051442,19.6871693 91.4447885,19.045885 91.2259247,18.4197661 C91.1002405,18.0644599 90.9615545,17.7199862 90.8011988,17.386345 C90.5693332,16.8945493 90.7405237,16.3160934 91.1782514,16.0236158 C90.7123531,16.2640974 90.1251046,16.1297743 89.8065602,15.6899746 C89.4251737,15.1548488 88.989613,14.654387 88.5215477,14.2015882 C88.1314933,13.8267835 88.0816531,13.2309957 88.3828617,12.8020285 C88.0274788,13.1876657 87.4315624,13.2699927 86.9895008,12.9710156 C86.4390908,12.6092098 85.8540092,12.2950672 85.2559258,12.03942 C84.755356,11.8271029 84.4996537,11.2833111 84.6318388,10.7741833 C84.4411456,11.2594796 83.925407,11.5519573 83.3836648,11.4306332 C82.7444091,11.2854776 82.0856506,11.1988176 81.433393,11.170653 C80.8829829,11.148988 80.4452552,10.7200208 80.3997489,10.1870615 C80.4062498,10.7221873 80.0140284,11.1944845 79.4701193,11.2724786 C78.8265296,11.3656381 78.1807729,11.5172932 77.5545189,11.7274438 C77.0431143,11.8985974 76.4883703,11.6667818 76.2478368,11.2009841 C76.4276952,11.6927798 76.2261671,12.2539036 75.7537679,12.5160503 C75.1773542,12.834526 74.6291111,13.2049977 74.1263744,13.6187994 C73.7081494,13.9611066 73.1165669,13.9394416 72.7265126,13.5993009 C73.0645597,13.9957706 73.0753945,14.589392 72.7265126,14.9988607 C72.3039537,15.497156 71.9225672,16.0409478 71.5975219,16.6085711 C71.3266508,17.0852014 70.7415692,17.273687 70.2561682,17.0787019 C70.7285674,17.32135 70.960433,17.8824738 70.7784077,18.3981011 C70.5595438,19.0220535 70.3948542,19.6633378 70.2930067,20.3067887 C70.2063279,20.8419145 69.6970903,21.3207113 69.2203571,21.2188857 C69.7447636,21.2860473 70.1543207,21.725847 70.1673225,22.2696388 C70.1824913,22.9195892 70.2583352,23.5782055 70.3926872,24.2216564 C70.5032026,24.7481162 70.2106619,25.26591 69.7252609,25.4543956 C70.2366655,25.3374045 70.7675728,25.6017177 70.9712679,26.1021795 C71.2183023,26.7066333 71.5238449,27.2937551 71.8770608,27.8483795 C72.1696016,28.3055112 72.074255,28.8991326 71.6755327,29.2457727 C72.1132604,28.9467956 72.7091768,29.0031246 73.0818954,29.3995943 C73.526124,29.8740581 74.0180259,30.3138579 74.5489333,30.7059946 C74.9888279,31.0331363 75.1123451,31.6310906 74.8523089,32.1012214 C75.1491836,31.6505891 75.7407661,31.481602 76.232668,31.7264167 C76.8220835,32.0167278 77.4396696,32.2507099 78.0702575,32.428363 C78.5946639,32.5756851 78.9175423,33.0826464 78.8525332,33.6047732 C78.9782174,33.0934789 79.4657853,32.7403392 80.0031936,32.7880023 C80.6576182,32.8486643 81.3098757,32.8508308 81.9686342,32.7901688 C82.0033057,32.7858357 82.0358103,32.7858357 82.0704818,32.7858357 M80.9978322,35 C80.596943,35 80.2003878,34.982668 79.8038325,34.9458375 C79.2079161,34.8895084 78.7701884,34.3630486 78.8243626,33.7672608 C78.8265296,33.7542618 78.8265296,33.7434293 78.8286965,33.7325968 C78.8265296,33.7412628 78.8221956,33.7542618 78.8200287,33.7650943 C78.657506,34.3413836 78.0615896,34.6750248 77.483009,34.5147037 C76.7267369,34.3023866 75.9856336,34.0185749 75.2792017,33.6719347 C74.7417935,33.4097881 74.5207627,32.7598377 74.7829659,32.2225454 C74.7916338,32.2052134 74.8003017,32.1900479 74.8068026,32.1727159 L74.776465,32.2203789 C74.4189152,32.7056752 73.7406539,32.8031678 73.2595869,32.4478616 C72.624665,31.9755643 72.0309156,31.4491045 71.4978413,30.8793147 C71.0904512,30.4416814 71.1121209,29.757067 71.5498485,29.3475983 C71.5585164,29.3389323 71.5671843,29.3302663 71.5758522,29.3216003 C71.5671843,29.3302663 71.5563494,29.3367658 71.5476816,29.3432653 C71.0406109,29.661741 70.3731845,29.5187519 70.0481392,29.0139571 C69.6255803,28.3510077 69.2615296,27.6447283 68.9646548,26.9189504 C68.7392901,26.3643261 69.0058272,25.7317078 69.5605712,25.5063916 C69.5649052,25.5042251 69.5714061,25.5020586 69.577907,25.4977256 C69.5692391,25.4998921 69.5649052,25.5020586 69.5562373,25.5042251 C68.9798236,25.6277157 68.396909,25.2507445 68.2733918,24.6657892 C68.1108692,23.8923482 68.0198565,23.1037418 68.0003537,22.3194683 C67.985185,21.721514 68.4597511,21.2253852 69.0578345,21.2102197 C69.0686693,21.2102197 69.0773372,21.2080532 69.0881721,21.2102197 C69.0773372,21.2102197 69.0643354,21.2080532 69.0513336,21.2058867 C68.4619181,21.1105607 68.0588619,20.5559363 68.1520416,19.966648 C68.2755588,19.1953736 68.4727529,18.4262656 68.7349561,17.6788227 C68.9321503,17.1176989 69.5497364,16.8208882 70.1153152,17.0180398 C70.130484,17.0223728 70.1456528,17.0288723 70.1608216,17.0332053 C70.1478198,17.0267058 70.132651,17.0202063 70.1196492,17.0115403 C69.5995767,16.7147297 69.4197183,16.0539468 69.71876,15.5339865 C70.1088143,14.8493721 70.5638778,14.1972552 71.0731154,13.5993009 C71.4610028,13.1443357 72.1479319,13.0880066 72.6008284,13.4714773 C72.6051623,13.4758103 72.6094963,13.4779768 72.6116632,13.4823098 C72.6094963,13.4779768 72.6051623,13.4736438 72.6008284,13.4671443 C72.2216088,13.0056796 72.2887849,12.3232317 72.7503492,11.944094 C73.3571005,11.4457987 74.013692,11.0016659 74.704955,10.6203617 C75.2315284,10.3322171 75.885953,10.5207027 76.1763268,11.0428295 C76.1806607,11.053662 76.1871616,11.062328 76.1914956,11.070994 C76.1871616,11.062328 76.1849947,11.053662 76.1806607,11.044996 C75.9921345,10.4773726 76.2976771,9.8642528 76.8654229,9.67360069 C77.615194,9.42228655 78.3888019,9.23813394 79.1602428,9.12764238 C79.769161,9.04098233 80.3044023,9.45478407 80.388914,10.0462389 C80.391081,10.0657374 80.393248,10.0852359 80.3954149,10.1047344 L80.3954149,10.0440724 C80.4192516,9.44828456 80.9263223,8.93699027 81.5222387,9.00631831 C82.3045144,9.03881583 83.093291,9.14280789 83.8625649,9.31612799 C84.4476465,9.45045106 84.8138642,10.0289069 84.6795121,10.6138622 L84.6730112,10.6441932 C84.6751782,10.6355272 84.6795121,10.6268612 84.6838461,10.6181952 C84.9178787,10.0679039 85.5528005,9.81225677 86.1053776,10.0462389 C86.8248112,10.3538821 87.5247421,10.7286868 88.1813336,11.16632 C88.6819034,11.4956282 88.8184224,12.1672436 88.4890432,12.6655389 C88.4847092,12.6742049 88.4782083,12.6828709 88.4717074,12.6915369 C88.4782083,12.6828709 88.4847092,12.6763714 88.4912102,12.6698719 C88.9094351,12.2387381 89.5963642,12.2279056 90.023257,12.6417074 C90.5888359,13.1833327 91.1067414,13.7834535 91.5683058,14.4247379 C91.9171877,14.9100341 91.8066723,15.588149 91.3212713,15.9369557 C91.3104365,15.9456217 91.2996016,15.9521212 91.2887668,15.9586207 C91.2974347,15.9542877 91.3082695,15.9499547 91.3191044,15.9434552 C91.8586796,15.6899746 92.5044363,15.9174572 92.7623055,16.4590825 C92.9508318,16.8598852 93.1198554,17.2758535 93.2693762,17.7026542 C93.5337464,18.4544302 93.7266066,19.2257046 93.8457899,19.9948125 C93.9368026,20.5862674 93.5294125,21.1387252 92.939997,21.2297182 C92.9226612,21.2318847 92.9053255,21.2340512 92.8879897,21.2362177 C92.9053255,21.2362177 92.9269952,21.2362177 92.9443309,21.2362177 C93.5424143,21.2513832 94.0148135,21.7496785 93.9996447,22.3476329 C93.977975,23.1340728 93.8847953,23.9226792 93.7201057,24.6939537 C93.5922546,25.2810755 93.0136739,25.6580467 92.4329263,25.5258901 C92.4199245,25.5237236 92.4090896,25.5215571 92.3960878,25.5193906 C92.4090896,25.5215571 92.4199245,25.5280566 92.4329263,25.5323897 C92.9876703,25.7620388 93.2498735,26.3946571 93.0223418,26.9471149 C92.7211331,27.6772259 92.3549154,28.3813388 91.9323565,29.0399551 C91.6073112,29.5425834 90.9377179,29.6855725 90.4328141,29.3627638 C90.4241463,29.3584308 90.4176454,29.3519313 90.4089775,29.3475983 C90.4154784,29.3540978 90.4219793,29.3605973 90.4306472,29.3670968 C90.8683749,29.7765655 90.8878776,30.4633464 90.4783205,30.8988132 C89.9387453,31.4751025 89.3428289,32.0015623 88.7144079,32.4651936 C88.2333409,32.8183333 87.5529127,32.7186742 87.1996968,32.2355444 C87.1910289,32.2247119 87.182361,32.2138794 87.1758601,32.2030469 C87.182361,32.2138794 87.1888619,32.2268784 87.1953628,32.2398774 C87.4553991,32.7771697 87.2322013,33.4249536 86.6926261,33.6871003 C86.2440636,33.9059169 85.7759983,34.0987355 85.2905973,34.2677226 C85.0262271,34.3608821 84.75969,34.4432092 84.4931528,34.5190367 C83.9080713,34.6836908 83.3186558,34.3478831 83.1561331,33.7737603 C83.1496322,33.7564283 83.1452983,33.7390963 83.1409643,33.7239308 C83.1431313,33.7390963 83.1452983,33.7542618 83.1474652,33.7694273 C83.2016395,34.3652151 82.7617448,34.8938414 82.1679954,34.948004 C81.775774,34.9848345 81.3878866,35 80.9978322,35" id="Fill-30" fill="#57337E" mask="url(#mask-2)"></path>
                <path d="M78.2743091,30 L77.7316274,28.4616266 C78.6008188,27.6868418 79.3484135,26.2111677 78.8890481,24.9146347 C78.7967247,24.6481625 78.6953941,24.4287148 78.5647902,24.1734388 L76.6912999,24.8273035 L76,22.8657095 L77.531218,22.3350043 C77.2677584,21.8938695 77.0155578,21.360925 76.8331627,20.8458947 C75.988741,18.4498837 77.1957011,16.2576457 79.7604913,15.3641799 C80.8120778,14.9991801 81.6790174,14.9521556 82.178915,15.0350083 L82.4693961,17.3907125 C82.0348004,17.3078598 81.4515865,17.3593629 80.7445241,17.607921 C79.3844422,18.0804054 79.2696008,19.1037484 79.591607,20.0151282 C79.7649949,20.5100053 79.9856704,20.9466615 80.2671443,21.3810784 L82.8882293,20.4696985 L83.5772774,22.4312925 L81.2061412,23.2553412 C81.3930399,23.7255863 81.5101331,24.1756781 81.5101331,24.6660766 C81.5033777,25.2012603 81.3660184,25.7834686 81.0462641,26.3432842 L81.0597748,26.3813517 L86.169089,24.6033772 L87,26.96356 L78.2743091,30 Z" id="Fill-31" fill="#DB306B" mask="url(#mask-2)"></path>
                <path d="M142.513704,5.35268514 C137.90106,5.35268514 133.569091,7.60519969 130.921172,11.3768014 C128.751924,14.4715605 127.916426,18.2257514 128.569159,21.9472972 C129.224067,25.6666667 131.286702,28.9115934 134.380655,31.081407 C136.771832,32.7615434 139.574231,33.6473149 142.485419,33.6473149 C147.100239,33.6473149 151.434384,31.3969766 154.077951,27.625375 C156.247199,24.5306158 157.082697,20.7764249 156.429964,17.0548791 C155.777231,13.3333333 153.71242,10.0884066 150.620643,7.91859302 C148.22729,6.2406329 145.424892,5.35268514 142.513704,5.35268514 M142.485419,38 C138.675636,38 135.009454,36.8400094 131.880689,34.6462561 C127.835922,31.8083054 125.137961,27.5666137 124.282881,22.6981354 C123.429977,17.8318334 124.520041,12.9241809 127.359428,8.8783601 C130.818911,3.94459149 136.48463,1 142.513704,1 C146.323487,1 149.991844,2.15999059 153.118434,4.35592024 C157.1632,7.19169461 159.863338,11.4355626 160.716242,16.3040409 C161.571322,21.1703429 160.479082,26.0779954 157.639695,30.1238162 C154.182388,35.0554085 148.518844,38 142.485419,38" id="Fill-32" fill="#57337E" mask="url(#mask-2)"></path>
                <path d="M138.326868,30.2697222 C138.43741,30.2697222 138.552288,30.2870573 138.660663,30.3217275 C139.284903,30.5254149 139.930818,30.6705963 140.5789,30.7572718 C141.109938,30.8244453 141.502255,31.2686572 141.52393,31.7865432 C141.58462,31.270824 142.00945,30.8591155 142.544823,30.8331128 C143.19724,30.8027764 143.853992,30.7096003 144.493405,30.5557513 C145.033112,30.4387394 145.557647,30.7204347 145.750555,31.214485 C145.6075,30.7030996 145.863265,30.1505434 146.36179,29.9316878 C146.96002,29.6716613 147.54091,29.3531289 148.084952,28.9847581 C148.53796,28.6770601 149.140525,28.7594018 149.50033,29.158109 C149.17954,28.7312323 149.21422,28.122337 149.606537,27.7366311 C150.068215,27.2815848 150.495212,26.7745332 150.876692,26.2328114 C151.097777,25.9251134 151.290684,25.6109147 151.468419,25.2923823 C151.737189,24.817834 152.302907,24.6293149 152.792762,24.8048327 C152.326749,24.5599745 152.096994,24.0074182 152.270394,23.4960329 C152.478474,22.8806369 152.634534,22.2392383 152.729904,21.5848384 C152.807934,21.0517841 153.265277,20.6639113 153.787644,20.6574107 C153.267444,20.5967378 152.851284,20.1611935 152.831777,19.6194717 C152.812269,18.9715725 152.727737,18.3150056 152.582514,17.6714402 C152.463302,17.1340521 152.764584,16.6031648 153.267444,16.4189794 C152.749412,16.5619939 152.196699,16.2976337 151.986452,15.7905821 C151.735022,15.1925212 151.422902,14.6074617 151.060929,14.0592392 C150.75748,13.5998592 150.850682,12.9952976 151.258172,12.6442619 C150.822505,12.9606274 150.213437,12.9151228 149.834125,12.5207493 C149.381117,12.0483679 148.880425,11.6149905 148.349387,11.2292846 C147.894212,10.9020846 147.768497,10.2845218 148.045937,9.80780661 C147.764162,10.2780211 147.157262,10.4622065 146.654402,10.2260158 C146.062675,9.9443205 145.440602,9.71679735 144.807692,9.54561326 C144.291827,9.40693248 143.964535,8.91721598 144.010052,8.40149683 C143.88217,8.90204777 143.36197,9.23574839 142.878618,9.21191264 C142.58167,9.18807688 142.289058,9.18157622 141.985608,9.17940933 C141.623635,9.17940933 141.261663,9.19674443 140.904025,9.23358151 C140.359983,9.28125303 139.844118,8.91504909 139.731408,8.37549419 C139.83328,8.91721598 139.510323,9.45677089 138.968448,9.61278676 C138.337705,9.79480528 137.722135,10.0353298 137.139078,10.3278595 C136.655725,10.5662171 136.07917,10.4210357 135.77572,9.99632579 C136.01848,10.4578728 135.899268,11.0385985 135.470103,11.3636316 C134.947735,11.7580051 134.457881,12.2043838 134.015711,12.6897665 C133.647236,13.0884738 133.051173,13.1513135 132.611171,12.8566169 C133.012158,13.2011519 133.111863,13.794879 132.821418,14.2542591 C132.472451,14.8111491 132.173336,15.4005424 131.932743,16.0072708 C131.731166,16.5121555 131.191458,16.7851833 130.677761,16.6616707 C131.174118,16.8393555 131.479736,17.3594084 131.373528,17.8946295 C131.245646,18.5316944 131.178453,19.1882612 131.167616,19.8491618 C131.158946,20.3908836 130.757958,20.8350954 130.237758,20.9066027 C130.729781,20.8892676 131.232641,21.2749735 131.321508,21.8123615 C131.427716,22.455927 131.596781,23.0951587 131.820033,23.7148885 C132.004271,24.224107 131.781018,24.7831638 131.319341,25.0345228 C131.809196,24.8395029 132.379248,25.0236883 132.654521,25.4960697 C132.981813,26.0572935 133.365461,26.5946815 133.796793,27.0930656 C134.152263,27.5026072 134.143593,28.1050019 133.801128,28.505876 C134.193446,28.1483396 134.791676,28.1201701 135.21217,28.4560376 C135.396408,28.6033859 135.58498,28.7464005 135.780055,28.8829144 C136.13119,29.1277726 136.488828,29.3487951 136.855135,29.5481487 C137.329818,29.8060083 137.53573,30.3650652 137.36233,30.8591155 C137.548735,30.4950784 137.923713,30.2697222 138.326868,30.2697222 M142.59901,33 C142.022455,33 141.543438,32.5492875 141.517428,31.9707286 C141.517428,31.9663948 141.51526,31.962061 141.51526,31.9577273 L141.51526,31.9707286 C141.43723,32.5666226 140.852005,32.9739974 140.299293,32.904657 C139.518993,32.8028133 138.74086,32.6272954 137.993073,32.384604 C137.42302,32.1982517 137.1109,31.5871896 137.295138,31.0194651 C137.297305,31.0086307 137.30164,30.9999631 137.303808,30.9912956 L137.290803,31.0172982 C137.004693,31.5438518 136.345773,31.7367048 135.823405,31.4528426 C135.38557,31.2166519 134.954238,30.9501247 134.535911,30.657595 C134.303988,30.4929115 134.076401,30.3238943 133.857483,30.1483765 C133.391471,29.773505 133.315608,29.0931024 133.688418,28.6250548 C133.697088,28.6163873 133.705758,28.6055528 133.712261,28.5968853 C133.703591,28.6055528 133.694921,28.6120535 133.686251,28.620721 C133.233243,29.0107607 132.548313,28.9630892 132.158163,28.5102098 C131.640131,27.909982 131.176286,27.2642497 130.783968,26.586014 C130.480518,26.0702948 130.656086,25.4072274 131.171951,25.10603 C131.182788,25.0995294 131.191458,25.0951956 131.200128,25.0886949 L131.167616,25.1016963 C130.604066,25.3097174 129.984161,25.0150208 129.780416,24.4516301 C129.513813,23.7083878 129.312236,22.9391429 129.182186,22.167731 C129.084648,21.5783377 129.483468,21.0192808 130.073028,20.9217709 C130.081698,20.919604 130.092536,20.919604 130.101206,20.9174371 L130.066526,20.9174371 C129.470463,20.9087696 128.991446,20.4168862 129,19.8188253 C129.013121,19.0257446 129.095486,18.2348308 129.249378,17.4699196 C129.364256,16.8826932 129.945146,16.4991542 130.521701,16.6204999 C130.534706,16.6226668 130.547711,16.6248336 130.560716,16.6291674 C130.549878,16.6248336 130.536873,16.618333 130.523868,16.6139992 C129.968988,16.3929767 129.698051,15.7645794 129.916968,15.2076894 C130.207413,14.4774485 130.567218,13.7688764 130.987713,13.1014751 C131.308503,12.5944235 131.978261,12.4470752 132.483288,12.7612738 C132.491958,12.7677745 132.500628,12.7721083 132.507131,12.7786089 C132.500628,12.7721083 132.491958,12.7634407 132.483288,12.7547732 C132.043286,12.3517321 132.010773,11.6669958 132.413928,11.2249508 C132.949301,10.6442251 133.534526,10.1090039 134.160933,9.63662252 C134.642118,9.27691925 135.318378,9.36792851 135.678183,9.84681058 C135.684685,9.85331124 135.68902,9.8598119 135.693355,9.86414567 C135.68902,9.8598119 135.686853,9.85331124 135.682518,9.84681058 C135.415915,9.31158945 135.632665,8.65935641 136.16587,8.39282929 C136.86814,8.03962668 137.609425,7.7492638 138.36805,7.53040819 C138.9316,7.36572477 139.542835,7.69509162 139.709733,8.2714836 C139.718403,8.29965314 139.724905,8.32782267 139.72924,8.3559922 C139.724905,8.32782267 139.72057,8.29748625 139.718403,8.26714983 C139.655545,7.67125586 140.089045,7.1403685 140.685108,7.07752877 C141.127278,7.03419103 141.556443,6.97351819 142.015953,7.01252216 C142.35625,7.01252216 142.700883,7.02552348 143.043347,7.05152613 C143.63941,7.09919764 144.085915,7.61925056 144.040397,8.21514454 L144.040397,8.23247963 C144.040397,8.22814586 144.042565,8.22381209 144.044732,8.21947831 C144.198625,7.64091944 144.79252,7.30071815 145.371242,7.45240025 C146.132035,7.65608765 146.875487,7.93128232 147.58426,8.26931672 C148.126135,8.5250094 148.35589,9.17290867 148.097957,9.71246357 C148.084952,9.74063311 148.06978,9.76663575 148.054607,9.7926384 C148.071947,9.76880264 148.08712,9.74279999 148.106627,9.71896423 C148.455595,9.22924773 149.134022,9.12523715 149.619542,9.47410598 C150.256787,9.93348606 150.855017,10.453539 151.399059,11.0212634 C151.813052,11.452474 151.797879,12.1393772 151.366547,12.5532527 C151.353542,12.566254 151.338369,12.5792553 151.325364,12.5900897 L151.370882,12.5597533 C151.869407,12.2325534 152.541332,12.3647335 152.872959,12.8674513 C153.306459,13.5283519 153.681437,14.2304233 153.984887,14.9541636 C154.214642,15.5067199 153.956709,16.1394509 153.403997,16.3713078 C153.386657,16.3778085 153.371484,16.3843092 153.358479,16.3908098 C153.371484,16.3864761 153.388824,16.3821423 153.406164,16.3778085 C153.995724,16.2542959 154.570112,16.618333 154.700162,17.2012256 C154.871394,17.9726375 154.973267,18.7613844 154.999277,19.5436307 C155.020952,20.1416915 154.552772,20.6444094 153.954542,20.6639113 C153.945872,20.6660782 153.937202,20.6660782 153.928532,20.6660782 C153.937202,20.6660782 153.948039,20.6682451 153.958877,20.670412 C154.550604,20.7570875 154.962429,21.3074768 154.875729,21.899037 C154.758684,22.6834502 154.574447,23.454862 154.323017,24.1937705 C154.127942,24.761495 153.512372,25.0648592 152.946654,24.8698393 C152.935817,24.8676724 152.927147,24.8633387 152.916309,24.8611718 C152.924979,24.8655056 152.935817,24.8698393 152.944487,24.8741731 C153.466854,25.1667029 153.653259,25.8276035 153.362814,26.3476564 C153.146064,26.7355292 152.909807,27.1125676 152.647539,27.4831053 C152.194532,28.1266708 151.683002,28.7333992 151.125954,29.2794547 C150.70546,29.6998308 150.02053,29.6954971 149.593532,29.2686203 C149.580527,29.255619 149.56969,29.2426176 149.558852,29.2296163 C149.56969,29.2426176 149.57836,29.2577859 149.589197,29.275121 C149.92516,29.7691712 149.79511,30.4430731 149.298752,30.7789406 C148.646335,31.2209856 147.9484,31.6066915 147.22879,31.9187233 C146.684747,32.1592478 146.045335,31.9078889 145.802575,31.3574995 C145.796072,31.3466651 145.791737,31.3336638 145.785235,31.3206624 C145.78957,31.3336638 145.793905,31.348832 145.796072,31.3618333 C145.934792,31.9447259 145.574987,32.5276186 144.99193,32.6662994 C144.224635,32.846151 143.435665,32.9588291 142.65103,32.9978331 C142.63369,33 142.61635,33 142.59901,33" id="Fill-33" fill="#57337E" mask="url(#mask-2)"></path>
                <path d="M135,21.9501015 L135.910728,20.6731649 C137.008384,20.9131262 138.595094,20.6645949 139.360193,19.5890543 C139.51669,19.3705182 139.631889,19.1691222 139.757957,18.9270184 L138.188635,17.8407653 L139.347151,16.2145995 L140.629561,17.0994565 C140.82953,16.6516717 141.107747,16.1588942 141.409874,15.7325345 C142.824872,13.7442842 145.23102,13.4507602 147.378513,14.9376629 C148.260984,15.5439935 148.782642,16.1888893 149,16.6216766 L147.306785,18.1599995 C147.126378,17.7786325 146.754696,17.3544153 146.165658,16.9451957 C145.026704,16.1588942 144.157274,16.6409592 143.618227,17.4015506 C143.324794,17.8107702 143.105263,18.2242748 142.918336,18.6849147 L145.111473,20.2018125 L143.955131,21.8279784 L141.970657,20.4567713 C141.703307,20.8595634 141.414221,21.2002226 141.027325,21.4766066 C140.603478,21.7701306 140.064431,21.9908092 139.444962,22.0550845 L139.421053,22.0850797 L143.700823,25.0417449 L142.305387,27 L135,21.9501015 Z" id="Fill-34" fill="#DB306B" mask="url(#mask-2)"></path>
            </g>
        </g>
    </g>
</svg>